<svg width="219" height="219" viewBox="0 0 219 219" fill="none" xmlns="http://www.w3.org/2000/svg">
<rect width="219" height="219" rx="30" fill="#47029C"/>
<path d="M99.33 157.85H99.19V157.96H60.6C60.72 157.37 60.85 156.78 60.99 156.2C61.12 155.65 61.26 155.11 61.41 154.58C61.47 154.37 61.53 154.17 61.59 153.96C61.71 153.55 61.83 153.15 61.96 152.74C62.07 152.4 62.18 152.06 62.31 151.72C62.43 151.35 62.57 150.97 62.71 150.6C62.89 150.11 63.08 149.62 63.27 149.14C63.44 148.72 63.62 148.31 63.81 147.9C63.86 147.76 63.92 147.63 63.99 147.5C64.16 147.11 64.34 146.72 64.53 146.34C64.6 146.19 64.67 146.05 64.74 145.91C64.92 145.54 65.11 145.17 65.31 144.81C65.38 144.67 65.45 144.53 65.54 144.39C65.57 144.33 65.61 144.26 65.64 144.2C65.86 143.79 66.09 143.38 66.33 142.98C66.56 142.59 66.79 142.2 67.04 141.81C67.05 141.8 67.06 141.78 67.07 141.77C67.2 141.55 67.34 141.34 67.48 141.12C67.73 140.72 67.99 140.33 68.26 139.95C68.6 139.46 68.94 138.97 69.31 138.49C69.57 138.12 69.85 137.76 70.14 137.4C70.2 137.33 70.25 137.27 70.3 137.21C70.39 137.08 70.5 136.95 70.6 136.83C70.91 136.45 71.22 136.07 71.55 135.7C71.56 135.68 71.57 135.67 71.59 135.65L71.62 135.62C71.94 135.24 72.27 134.87 72.62 134.5C72.71 134.4 72.81 134.29 72.91 134.19C73.28 133.78 73.67 133.38 74.07 132.98C79.058 127.992 84.932 124.216 91.33 121.78V118.57H60.78C60.59 118.75 60.41 118.93 60.23 119.11C53.91 125.42 48.94 132.77 45.46 140.96C41.86 149.45 40.03 158.45 40.01 167.74L40 173.55V177.55H118.62V118.57H118.63V113.89L118.62 104.77V60.6002H118.658H118.786H118.79V60.5702H157.38C155.47 69.9702 150.85 78.6202 143.91 85.5502C140 89.4502 135.55 92.6202 130.72 94.9702H161.82C166.24 89.7302 169.83 83.9002 172.52 77.5602C176.11 69.0802 177.94 60.0702 177.96 50.7902L177.98 40.9702H99.33V157.85Z" fill="white"/>
<path d="M59.6098 98.97V60.54C69.0598 62.42 77.7598 67.03 84.7298 74C87.2468 76.513 89.4408 79.263 91.3298 82.183V53.8391C86.8288 50.442 81.9338 47.611 76.6998 45.4C68.2098 41.81 59.1998 40 49.9098 40H40.0098V114.57H91.3298V98.97H59.6098Z" fill="white"/>
<path d="M126.689 114.57H157.389V157C147.929 155.13 139.239 150.51 132.269 143.55C130.199 141.48 128.329 139.26 126.689 136.92V164.47C130.899 167.53 135.459 170.1 140.299 172.14C148.789 175.73 157.799 177.55 167.089 177.55H176.979V98.9702H126.689V114.57Z" fill="white"/>
</svg>
